<svg xmlns="http://www.w3.org/2000/svg" xmlns:xlink="http://www.w3.org/1999/xlink" version="1.1" width="256" height="256" viewBox="0 0 256 256" xml:space="preserve">
<desc>Created with Fabric.js 1.7.22</desc>
<defs>
</defs>
<g transform="translate(128 128) scale(0.72 0.72)" style="">
	<g style="stroke: none; stroke-width: 0; stroke-dasharray: none; stroke-linecap: butt; stroke-linejoin: miter; stroke-miterlimit: 10; fill: none; fill-rule: nonzero; opacity: 1;" transform="translate(-175.05 -175.05000000000004) scale(3.89 3.89)" >
	<path d="M 36.63 55.015 l 30.724 -30.724 c 0.769 -0.769 0.769 -2.015 0 -2.784 l -8.591 -8.591 c -0.769 -0.769 -2.015 -0.769 -2.784 0 L 25.256 43.641 c -0.769 0.769 -0.769 2.015 0 2.784 l 8.591 8.591 C 34.616 55.784 35.862 55.784 36.63 55.015 z" style="stroke: none; stroke-width: 1; stroke-dasharray: none; stroke-linecap: butt; stroke-linejoin: miter; stroke-miterlimit: 10; fill: rgb(0,0,0); fill-rule: nonzero; opacity: 1;" transform=" matrix(1 0 0 1 0 0) " stroke-linecap="round" />
	<path d="M 36.63 34.985 l 30.724 30.724 c 0.769 0.769 0.769 2.015 0 2.784 l -8.591 8.591 c -0.769 0.769 -2.015 0.769 -2.784 0 L 25.256 46.359 c -0.769 -0.769 -0.769 -2.015 0 -2.784 l 8.591 -8.591 C 34.616 34.216 35.862 34.216 36.63 34.985 z" style="stroke: none; stroke-width: 1; stroke-dasharray: none; stroke-linecap: butt; stroke-linejoin: miter; stroke-miterlimit: 10; fill: rgb(0,0,0); fill-rule: nonzero; opacity: 1;" transform=" matrix(1 0 0 1 0 0) " stroke-linecap="round" />
	<path d="M 44.581 53.043 l 43.451 0 c 1.087 0 1.968 -0.881 1.968 -1.968 V 38.925 c 0 -1.087 -0.881 -1.968 -1.968 -1.968 l -43.451 0 c -1.087 0 -1.968 0.881 -1.968 1.968 v 12.149 C 42.613 52.162 43.494 53.043 44.581 53.043 z" style="stroke: none; stroke-width: 1; stroke-dasharray: none; stroke-linecap: butt; stroke-linejoin: miter; stroke-miterlimit: 10; fill: rgb(0,0,0); fill-rule: nonzero; opacity: 1;" transform=" matrix(1 0 0 1 0 0) " stroke-linecap="round" />
	<path d="M 0 14.651 l 0 60.699 c 0 1.276 1.035 2.311 2.311 2.311 h 11.464 c 1.276 0 2.311 -1.035 2.311 -2.311 l 0 -60.699 c 0 -1.276 -1.035 -2.311 -2.311 -2.311 l -11.464 0 C 1.035 12.34 0 13.374 0 14.651 z" style="stroke: none; stroke-width: 1; stroke-dasharray: none; stroke-linecap: butt; stroke-linejoin: miter; stroke-miterlimit: 10; fill: rgb(0,0,0); fill-rule: nonzero; opacity: 1;" transform=" matrix(1 0 0 1 0 0) " stroke-linecap="round" />
</g>
</g>
</svg>