<svg id="visual" viewBox="0 0 960 540" width="960" height="540" xmlns="http://www.w3.org/2000/svg" xmlns:xlink="http://www.w3.org/1999/xlink" version="1.1"><rect x="0" y="0" width="960" height="540" fill="#13121f"></rect><path d="M0 346L22.8 345.3C45.7 344.7 91.3 343.3 137 347.8C182.7 352.3 228.3 362.7 274 366.3C319.7 370 365.3 367 411.2 365C457 363 503 362 548.8 356.5C594.7 351 640.3 341 686 336.5C731.7 332 777.3 333 823 338C868.7 343 914.3 352 937.2 356.5L960 361L960 541L937.2 541C914.3 541 868.7 541 823 541C777.3 541 731.7 541 686 541C640.3 541 594.7 541 548.8 541C503 541 457 541 411.2 541C365.3 541 319.7 541 274 541C228.3 541 182.7 541 137 541C91.3 541 45.7 541 22.8 541L0 541Z" fill="#577bb2"></path><path d="M0 424L22.8 422.7C45.7 421.3 91.3 418.7 137 417.8C182.7 417 228.3 418 274 411.5C319.7 405 365.3 391 411.2 385.3C457 379.7 503 382.3 548.8 390.7C594.7 399 640.3 413 686 409.7C731.7 406.3 777.3 385.7 823 384.2C868.7 382.7 914.3 400.3 937.2 409.2L960 418L960 541L937.2 541C914.3 541 868.7 541 823 541C777.3 541 731.7 541 686 541C640.3 541 594.7 541 548.8 541C503 541 457 541 411.2 541C365.3 541 319.7 541 274 541C228.3 541 182.7 541 137 541C91.3 541 45.7 541 22.8 541L0 541Z" fill="#448bbe"></path><path d="M0 415L22.8 411.5C45.7 408 91.3 401 137 402.5C182.7 404 228.3 414 274 417C319.7 420 365.3 416 411.2 421C457 426 503 440 548.8 439.5C594.7 439 640.3 424 686 422.8C731.7 421.7 777.3 434.3 823 432.2C868.7 430 914.3 413 937.2 404.5L960 396L960 541L937.2 541C914.3 541 868.7 541 823 541C777.3 541 731.7 541 686 541C640.3 541 594.7 541 548.8 541C503 541 457 541 411.2 541C365.3 541 319.7 541 274 541C228.3 541 182.7 541 137 541C91.3 541 45.7 541 22.8 541L0 541Z" fill="#2d9bc6"></path><path d="M0 442L22.8 447.3C45.7 452.7 91.3 463.3 137 464.8C182.7 466.3 228.3 458.7 274 457.7C319.7 456.7 365.3 462.3 411.2 468.5C457 474.7 503 481.3 548.8 478C594.7 474.7 640.3 461.3 686 452C731.7 442.7 777.3 437.3 823 441.7C868.7 446 914.3 460 937.2 467L960 474L960 541L937.2 541C914.3 541 868.7 541 823 541C777.3 541 731.7 541 686 541C640.3 541 594.7 541 548.8 541C503 541 457 541 411.2 541C365.3 541 319.7 541 274 541C228.3 541 182.7 541 137 541C91.3 541 45.7 541 22.8 541L0 541Z" fill="#1baac9"></path><path d="M0 501L22.8 500.5C45.7 500 91.3 499 137 495C182.7 491 228.3 484 274 484.2C319.7 484.3 365.3 491.7 411.2 496C457 500.3 503 501.7 548.8 502.7C594.7 503.7 640.3 504.3 686 501.5C731.7 498.7 777.3 492.3 823 492.2C868.7 492 914.3 498 937.2 501L960 504L960 541L937.2 541C914.3 541 868.7 541 823 541C777.3 541 731.7 541 686 541C640.3 541 594.7 541 548.8 541C503 541 457 541 411.2 541C365.3 541 319.7 541 274 541C228.3 541 182.7 541 137 541C91.3 541 45.7 541 22.8 541L0 541Z" fill="#24b8c7"></path></svg>