<svg id="visual" viewBox="0 0 960 540" width="960" height="540" xmlns="http://www.w3.org/2000/svg" xmlns:xlink="http://www.w3.org/1999/xlink" version="1.1"><rect x="0" y="0" width="960" height="540" fill="#13121f"></rect><path d="M0 373L12.3 381.7C24.7 390.3 49.3 407.7 74 417.5C98.7 427.3 123.3 429.7 148 428.5C172.7 427.3 197.3 422.7 221.8 417.8C246.3 413 270.7 408 295.2 409.3C319.7 410.7 344.3 418.3 369 426C393.7 433.7 418.3 441.3 443 440.7C467.7 440 492.3 431 517 428C541.7 425 566.3 428 591 422C615.7 416 640.3 401 664.8 390.8C689.3 380.7 713.7 375.3 738.2 379.2C762.7 383 787.3 396 812 399C836.7 402 861.3 395 886 388.7C910.7 382.3 935.3 376.7 947.7 373.8L960 371L960 541L947.7 541C935.3 541 910.7 541 886 541C861.3 541 836.7 541 812 541C787.3 541 762.7 541 738.2 541C713.7 541 689.3 541 664.8 541C640.3 541 615.7 541 591 541C566.3 541 541.7 541 517 541C492.3 541 467.7 541 443 541C418.3 541 393.7 541 369 541C344.3 541 319.7 541 295.2 541C270.7 541 246.3 541 221.8 541C197.3 541 172.7 541 148 541C123.3 541 98.7 541 74 541C49.3 541 24.7 541 12.3 541L0 541Z" fill="#577bb2" stroke-linecap="round" stroke-linejoin="miter"></path></svg>