<svg id="visual" viewBox="0 0 900 600" width="900" height="600" xmlns="http://www.w3.org/2000/svg" xmlns:xlink="http://www.w3.org/1999/xlink" version="1.1"><g stroke-width="1" stroke-linejoin="bevel"><path d="M419 314L373 295L411 347Z" fill="#1d4e6b" stroke="#1d4e6b"></path><path d="M373 295L352 356L411 347Z" fill="#1d4e6b" stroke="#1d4e6b"></path><path d="M373 295L309 306L352 356Z" fill="#205a7a" stroke="#205a7a"></path><path d="M309 306L310 364L352 356Z" fill="#205a7a" stroke="#205a7a"></path><path d="M352 356L369 410L411 347Z" fill="#081a28" stroke="#081a28"></path><path d="M310 364L369 410L352 356Z" fill="#1d4e6b" stroke="#1d4e6b"></path><path d="M415 427L467 365L411 347Z" fill="#19435d" stroke="#19435d"></path><path d="M411 347L467 365L419 314Z" fill="#081a28" stroke="#081a28"></path><path d="M479 253L428 237L419 314Z" fill="#00101c" stroke="#00101c"></path><path d="M419 314L428 237L373 295Z" fill="#205a7a" stroke="#205a7a"></path><path d="M373 295L350 236L309 306Z" fill="#15384f" stroke="#15384f"></path><path d="M428 237L350 236L373 295Z" fill="#081a28" stroke="#081a28"></path><path d="M467 365L493 314L419 314Z" fill="#112e42" stroke="#112e42"></path><path d="M369 410L415 427L411 347Z" fill="#205a7a" stroke="#205a7a"></path><path d="M493 314L479 253L419 314Z" fill="#15384f" stroke="#15384f"></path><path d="M254 405L302 408L310 364Z" fill="#205a7a" stroke="#205a7a"></path><path d="M310 364L302 408L369 410Z" fill="#297ea6" stroke="#297ea6"></path><path d="M369 410L357 474L415 427Z" fill="#1d4e6b" stroke="#1d4e6b"></path><path d="M350 236L293 239L309 306Z" fill="#0c2435" stroke="#0c2435"></path><path d="M309 306L250 312L310 364Z" fill="#19435d" stroke="#19435d"></path><path d="M415 427L474 428L467 365Z" fill="#246688" stroke="#246688"></path><path d="M467 365L529 368L493 314Z" fill="#205a7a" stroke="#205a7a"></path><path d="M293 239L250 312L309 306Z" fill="#19435d" stroke="#19435d"></path><path d="M425 168L366 183L428 237Z" fill="#1d4e6b" stroke="#1d4e6b"></path><path d="M428 237L366 183L350 236Z" fill="#297ea6" stroke="#297ea6"></path><path d="M350 236L293 187L293 239Z" fill="#0c2435" stroke="#0c2435"></path><path d="M525 412L529 368L467 365Z" fill="#246688" stroke="#246688"></path><path d="M493 314L537 302L479 253Z" fill="#00101c" stroke="#00101c"></path><path d="M529 368L537 302L493 314Z" fill="#297ea6" stroke="#297ea6"></path><path d="M302 408L357 474L369 410Z" fill="#15384f" stroke="#15384f"></path><path d="M415 427L466 471L474 428Z" fill="#1d4e6b" stroke="#1d4e6b"></path><path d="M230 360L254 405L310 364Z" fill="#246688" stroke="#246688"></path><path d="M302 408L293 467L357 474Z" fill="#277297" stroke="#277297"></path><path d="M357 474L426 477L415 427Z" fill="#19435d" stroke="#19435d"></path><path d="M489 174L428 237L479 253Z" fill="#1d4e6b" stroke="#1d4e6b"></path><path d="M489 174L425 168L428 237Z" fill="#246688" stroke="#246688"></path><path d="M250 312L230 360L310 364Z" fill="#19435d" stroke="#19435d"></path><path d="M532 481L525 412L474 428Z" fill="#246688" stroke="#246688"></path><path d="M474 428L525 412L467 365Z" fill="#205a7a" stroke="#205a7a"></path><path d="M529 368L589 313L537 302Z" fill="#277297" stroke="#277297"></path><path d="M426 477L466 471L415 427Z" fill="#297ea6" stroke="#297ea6"></path><path d="M250 181L293 187L290 129Z" fill="#1d4e6b" stroke="#1d4e6b"></path><path d="M366 183L293 187L350 236Z" fill="#297ea6" stroke="#297ea6"></path><path d="M293 239L229 232L250 312Z" fill="#15384f" stroke="#15384f"></path><path d="M250 312L179 299L230 360Z" fill="#15384f" stroke="#15384f"></path><path d="M254 405L293 467L302 408Z" fill="#0c2435" stroke="#0c2435"></path><path d="M537 302L532 225L479 253Z" fill="#00101c" stroke="#00101c"></path><path d="M532 225L489 174L479 253Z" fill="#15384f" stroke="#15384f"></path><path d="M250 181L229 232L293 239Z" fill="#15384f" stroke="#15384f"></path><path d="M585 179L532 191L532 225Z" fill="#15384f" stroke="#15384f"></path><path d="M532 225L532 191L489 174Z" fill="#277297" stroke="#277297"></path><path d="M293 187L250 181L293 239Z" fill="#246688" stroke="#246688"></path><path d="M290 129L293 187L366 183Z" fill="#15384f" stroke="#15384f"></path><path d="M587 370L589 313L529 368Z" fill="#081a28" stroke="#081a28"></path><path d="M537 302L614 239L532 225Z" fill="#00101c" stroke="#00101c"></path><path d="M593 421L587 370L525 412Z" fill="#277297" stroke="#277297"></path><path d="M525 412L587 370L529 368Z" fill="#112e42" stroke="#112e42"></path><path d="M166 191L190 253L229 232Z" fill="#205a7a" stroke="#205a7a"></path><path d="M229 232L190 253L250 312Z" fill="#297ea6" stroke="#297ea6"></path><path d="M190 253L179 299L250 312Z" fill="#205a7a" stroke="#205a7a"></path><path d="M177 412L235 476L254 405Z" fill="#112e42" stroke="#112e42"></path><path d="M254 405L235 476L293 467Z" fill="#0c2435" stroke="#0c2435"></path><path d="M302 532L357 533L357 474Z" fill="#277297" stroke="#277297"></path><path d="M357 474L357 533L426 477Z" fill="#205a7a" stroke="#205a7a"></path><path d="M426 477L476 545L466 471Z" fill="#297ea6" stroke="#297ea6"></path><path d="M476 545L532 481L466 471Z" fill="#277297" stroke="#277297"></path><path d="M466 471L532 481L474 428Z" fill="#00101c" stroke="#00101c"></path><path d="M177 412L254 405L230 360Z" fill="#205a7a" stroke="#205a7a"></path><path d="M293 467L302 532L357 474Z" fill="#297ea6" stroke="#297ea6"></path><path d="M432 110L358 110L425 168Z" fill="#1d4e6b" stroke="#1d4e6b"></path><path d="M425 168L358 110L366 183Z" fill="#112e42" stroke="#112e42"></path><path d="M432 110L425 168L489 174Z" fill="#112e42" stroke="#112e42"></path><path d="M358 110L290 129L366 183Z" fill="#277297" stroke="#277297"></path><path d="M250 181L166 191L229 232Z" fill="#00101c" stroke="#00101c"></path><path d="M484 107L432 110L489 174Z" fill="#205a7a" stroke="#205a7a"></path><path d="M179 299L173 367L230 360Z" fill="#246688" stroke="#246688"></path><path d="M235 476L302 532L293 467Z" fill="#277297" stroke="#277297"></path><path d="M532 481L593 421L525 412Z" fill="#081a28" stroke="#081a28"></path><path d="M656 249L614 239L589 313Z" fill="#19435d" stroke="#19435d"></path><path d="M173 367L177 412L230 360Z" fill="#205a7a" stroke="#205a7a"></path><path d="M406 600L424 550L357 533Z" fill="#19435d" stroke="#19435d"></path><path d="M357 533L424 550L426 477Z" fill="#081a28" stroke="#081a28"></path><path d="M533 129L484 107L489 174Z" fill="#277297" stroke="#277297"></path><path d="M432 110L367 57L358 110Z" fill="#19435d" stroke="#19435d"></path><path d="M424 550L476 545L426 477Z" fill="#246688" stroke="#246688"></path><path d="M532 481L613 470L593 421Z" fill="#15384f" stroke="#15384f"></path><path d="M648 358L589 313L587 370Z" fill="#00101c" stroke="#00101c"></path><path d="M589 313L614 239L537 302Z" fill="#205a7a" stroke="#205a7a"></path><path d="M532 191L533 129L489 174Z" fill="#277297" stroke="#277297"></path><path d="M585 179L533 129L532 191Z" fill="#15384f" stroke="#15384f"></path><path d="M614 239L585 179L532 225Z" fill="#277297" stroke="#277297"></path><path d="M294 48L248 108L290 129Z" fill="#15384f" stroke="#15384f"></path><path d="M290 129L248 108L250 181Z" fill="#00101c" stroke="#00101c"></path><path d="M294 48L290 129L358 110Z" fill="#00101c" stroke="#00101c"></path><path d="M183 131L166 191L250 181Z" fill="#297ea6" stroke="#297ea6"></path><path d="M109 228L107 312L179 299Z" fill="#1d4e6b" stroke="#1d4e6b"></path><path d="M108 359L129 408L173 367Z" fill="#19435d" stroke="#19435d"></path><path d="M476 545L546 529L532 481Z" fill="#297ea6" stroke="#297ea6"></path><path d="M125 468L179 480L177 412Z" fill="#19435d" stroke="#19435d"></path><path d="M177 412L179 480L235 476Z" fill="#19435d" stroke="#19435d"></path><path d="M235 476L226 529L302 532Z" fill="#081a28" stroke="#081a28"></path><path d="M179 480L226 529L235 476Z" fill="#19435d" stroke="#19435d"></path><path d="M356 600L406 600L357 533Z" fill="#277297" stroke="#277297"></path><path d="M673 427L648 358L593 421Z" fill="#00101c" stroke="#00101c"></path><path d="M593 421L648 358L587 370Z" fill="#081a28" stroke="#081a28"></path><path d="M427 52L367 57L432 110Z" fill="#246688" stroke="#246688"></path><path d="M546 529L613 470L532 481Z" fill="#1d4e6b" stroke="#1d4e6b"></path><path d="M107 312L173 367L179 299Z" fill="#19435d" stroke="#19435d"></path><path d="M173 367L129 408L177 412Z" fill="#112e42" stroke="#112e42"></path><path d="M532 73L474 64L484 107Z" fill="#277297" stroke="#277297"></path><path d="M484 107L474 64L432 110Z" fill="#1d4e6b" stroke="#1d4e6b"></path><path d="M532 73L484 107L533 129Z" fill="#0c2435" stroke="#0c2435"></path><path d="M474 64L427 52L432 110Z" fill="#0c2435" stroke="#0c2435"></path><path d="M356 600L357 533L302 532Z" fill="#00101c" stroke="#00101c"></path><path d="M424 550L469 600L476 545Z" fill="#0c2435" stroke="#0c2435"></path><path d="M476 545L532 600L546 529Z" fill="#00101c" stroke="#00101c"></path><path d="M288 600L356 600L302 532Z" fill="#246688" stroke="#246688"></path><path d="M673 293L656 249L589 313Z" fill="#297ea6" stroke="#297ea6"></path><path d="M614 239L662 167L585 179Z" fill="#1d4e6b" stroke="#1d4e6b"></path><path d="M595 112L532 73L533 129Z" fill="#112e42" stroke="#112e42"></path><path d="M109 228L179 299L190 253Z" fill="#081a28" stroke="#081a28"></path><path d="M248 108L183 131L250 181Z" fill="#277297" stroke="#277297"></path><path d="M166 191L109 228L190 253Z" fill="#205a7a" stroke="#205a7a"></path><path d="M172 63L183 131L248 108Z" fill="#246688" stroke="#246688"></path><path d="M107 312L108 359L173 367Z" fill="#112e42" stroke="#112e42"></path><path d="M648 358L673 293L589 313Z" fill="#205a7a" stroke="#205a7a"></path><path d="M721 352L673 293L648 358Z" fill="#246688" stroke="#246688"></path><path d="M406 600L469 600L424 550Z" fill="#081a28" stroke="#081a28"></path><path d="M672 547L652 465L613 470Z" fill="#205a7a" stroke="#205a7a"></path><path d="M595 112L533 129L585 179Z" fill="#00101c" stroke="#00101c"></path><path d="M476 0L405 0L427 52Z" fill="#00101c" stroke="#00101c"></path><path d="M305 0L294 48L367 57Z" fill="#246688" stroke="#246688"></path><path d="M367 57L294 48L358 110Z" fill="#081a28" stroke="#081a28"></path><path d="M179 480L191 541L226 529Z" fill="#246688" stroke="#246688"></path><path d="M240 600L288 600L302 532Z" fill="#205a7a" stroke="#205a7a"></path><path d="M116 550L191 541L179 480Z" fill="#1d4e6b" stroke="#1d4e6b"></path><path d="M240 600L302 532L226 529Z" fill="#19435d" stroke="#19435d"></path><path d="M106 187L109 228L166 191Z" fill="#277297" stroke="#277297"></path><path d="M294 48L250 63L248 108Z" fill="#0c2435" stroke="#0c2435"></path><path d="M646 128L595 112L585 179Z" fill="#112e42" stroke="#112e42"></path><path d="M585 553L613 470L546 529Z" fill="#112e42" stroke="#112e42"></path><path d="M613 470L652 465L593 421Z" fill="#00101c" stroke="#00101c"></path><path d="M129 408L125 468L177 412Z" fill="#297ea6" stroke="#297ea6"></path><path d="M54 421L125 468L129 408Z" fill="#081a28" stroke="#081a28"></path><path d="M532 600L585 553L546 529Z" fill="#15384f" stroke="#15384f"></path><path d="M652 465L673 427L593 421Z" fill="#277297" stroke="#277297"></path><path d="M469 600L532 600L476 545Z" fill="#112e42" stroke="#112e42"></path><path d="M191 541L240 600L226 529Z" fill="#15384f" stroke="#15384f"></path><path d="M174 600L240 600L191 541Z" fill="#081a28" stroke="#081a28"></path><path d="M127 117L166 191L183 131Z" fill="#15384f" stroke="#15384f"></path><path d="M127 117L106 187L166 191Z" fill="#15384f" stroke="#15384f"></path><path d="M68 239L63 296L107 312Z" fill="#297ea6" stroke="#297ea6"></path><path d="M656 249L662 167L614 239Z" fill="#00101c" stroke="#00101c"></path><path d="M716 249L662 167L656 249Z" fill="#15384f" stroke="#15384f"></path><path d="M662 167L646 128L585 179Z" fill="#277297" stroke="#277297"></path><path d="M528 0L474 64L532 73Z" fill="#1d4e6b" stroke="#1d4e6b"></path><path d="M476 0L427 52L474 64Z" fill="#1d4e6b" stroke="#1d4e6b"></path><path d="M427 52L405 0L367 57Z" fill="#1d4e6b" stroke="#1d4e6b"></path><path d="M294 48L248 0L250 63Z" fill="#00101c" stroke="#00101c"></path><path d="M476 0L474 64L528 0Z" fill="#19435d" stroke="#19435d"></path><path d="M405 0L364 0L367 57Z" fill="#205a7a" stroke="#205a7a"></path><path d="M68 239L107 312L109 228Z" fill="#297ea6" stroke="#297ea6"></path><path d="M107 312L54 357L108 359Z" fill="#0c2435" stroke="#0c2435"></path><path d="M108 359L54 421L129 408Z" fill="#277297" stroke="#277297"></path><path d="M106 187L68 239L109 228Z" fill="#19435d" stroke="#19435d"></path><path d="M172 63L127 117L183 131Z" fill="#277297" stroke="#277297"></path><path d="M106 187L55 190L68 239Z" fill="#1d4e6b" stroke="#1d4e6b"></path><path d="M172 63L248 108L250 63Z" fill="#081a28" stroke="#081a28"></path><path d="M734 433L721 352L673 427Z" fill="#112e42" stroke="#112e42"></path><path d="M673 427L721 352L648 358Z" fill="#1d4e6b" stroke="#1d4e6b"></path><path d="M673 293L716 249L656 249Z" fill="#277297" stroke="#277297"></path><path d="M364 0L305 0L367 57Z" fill="#00101c" stroke="#00101c"></path><path d="M0 302L54 357L63 296Z" fill="#297ea6" stroke="#297ea6"></path><path d="M63 296L54 357L107 312Z" fill="#00101c" stroke="#00101c"></path><path d="M614 62L532 73L595 112Z" fill="#297ea6" stroke="#297ea6"></path><path d="M731 307L716 249L673 293Z" fill="#1d4e6b" stroke="#1d4e6b"></path><path d="M662 167L728 113L646 128Z" fill="#00101c" stroke="#00101c"></path><path d="M181 0L172 63L250 63Z" fill="#246688" stroke="#246688"></path><path d="M721 352L731 307L673 293Z" fill="#19435d" stroke="#19435d"></path><path d="M673 59L614 62L646 128Z" fill="#1d4e6b" stroke="#1d4e6b"></path><path d="M646 128L614 62L595 112Z" fill="#00101c" stroke="#00101c"></path><path d="M54 357L54 421L108 359Z" fill="#1d4e6b" stroke="#1d4e6b"></path><path d="M116 550L174 600L191 541Z" fill="#205a7a" stroke="#205a7a"></path><path d="M116 550L179 480L125 468Z" fill="#19435d" stroke="#19435d"></path><path d="M585 553L672 547L613 470Z" fill="#246688" stroke="#246688"></path><path d="M733 490L734 433L673 427Z" fill="#15384f" stroke="#15384f"></path><path d="M532 600L607 600L585 553Z" fill="#297ea6" stroke="#297ea6"></path><path d="M305 0L248 0L294 48Z" fill="#081a28" stroke="#081a28"></path><path d="M593 0L528 0L532 73Z" fill="#112e42" stroke="#112e42"></path><path d="M53 468L116 550L125 468Z" fill="#15384f" stroke="#15384f"></path><path d="M52 123L106 187L127 117Z" fill="#246688" stroke="#246688"></path><path d="M52 123L55 190L106 187Z" fill="#277297" stroke="#277297"></path><path d="M0 242L0 302L63 296Z" fill="#205a7a" stroke="#205a7a"></path><path d="M649 600L672 547L585 553Z" fill="#19435d" stroke="#19435d"></path><path d="M733 490L673 427L652 465Z" fill="#246688" stroke="#246688"></path><path d="M792 302L774 251L731 307Z" fill="#15384f" stroke="#15384f"></path><path d="M54 421L53 468L125 468Z" fill="#112e42" stroke="#112e42"></path><path d="M0 475L53 468L54 421Z" fill="#205a7a" stroke="#205a7a"></path><path d="M0 405L54 421L54 357Z" fill="#0c2435" stroke="#0c2435"></path><path d="M716 249L731 180L662 167Z" fill="#1d4e6b" stroke="#1d4e6b"></path><path d="M774 251L731 180L716 249Z" fill="#1d4e6b" stroke="#1d4e6b"></path><path d="M774 251L716 249L731 307Z" fill="#205a7a" stroke="#205a7a"></path><path d="M769 540L707 527L734 600Z" fill="#19435d" stroke="#19435d"></path><path d="M672 547L707 527L652 465Z" fill="#112e42" stroke="#112e42"></path><path d="M607 600L649 600L585 553Z" fill="#297ea6" stroke="#297ea6"></path><path d="M64 600L124 600L116 550Z" fill="#297ea6" stroke="#297ea6"></path><path d="M116 550L124 600L174 600Z" fill="#277297" stroke="#277297"></path><path d="M707 527L733 490L652 465Z" fill="#1d4e6b" stroke="#1d4e6b"></path><path d="M614 62L593 0L532 73Z" fill="#0c2435" stroke="#0c2435"></path><path d="M661 0L593 0L614 62Z" fill="#205a7a" stroke="#205a7a"></path><path d="M248 0L181 0L250 63Z" fill="#081a28" stroke="#081a28"></path><path d="M172 63L110 53L127 117Z" fill="#19435d" stroke="#19435d"></path><path d="M181 0L110 53L172 63Z" fill="#277297" stroke="#277297"></path><path d="M0 242L68 239L55 190Z" fill="#205a7a" stroke="#205a7a"></path><path d="M0 242L63 296L68 239Z" fill="#00101c" stroke="#00101c"></path><path d="M0 302L0 351L54 357Z" fill="#246688" stroke="#246688"></path><path d="M728 113L673 59L646 128Z" fill="#112e42" stroke="#112e42"></path><path d="M54 67L52 123L127 117Z" fill="#0c2435" stroke="#0c2435"></path><path d="M768 424L721 352L734 433Z" fill="#1d4e6b" stroke="#1d4e6b"></path><path d="M790 367L731 307L721 352Z" fill="#15384f" stroke="#15384f"></path><path d="M731 180L728 113L662 167Z" fill="#112e42" stroke="#112e42"></path><path d="M794 479L768 424L734 433Z" fill="#297ea6" stroke="#297ea6"></path><path d="M0 351L0 405L54 357Z" fill="#081a28" stroke="#081a28"></path><path d="M53 468L50 546L116 550Z" fill="#19435d" stroke="#19435d"></path><path d="M0 174L0 242L55 190Z" fill="#112e42" stroke="#112e42"></path><path d="M788 134L728 113L731 180Z" fill="#1d4e6b" stroke="#1d4e6b"></path><path d="M768 424L790 367L721 352Z" fill="#15384f" stroke="#15384f"></path><path d="M0 475L50 546L53 468Z" fill="#15384f" stroke="#15384f"></path><path d="M790 367L792 302L731 307Z" fill="#19435d" stroke="#19435d"></path><path d="M784 64L718 57L728 113Z" fill="#205a7a" stroke="#205a7a"></path><path d="M52 123L0 174L55 190Z" fill="#15384f" stroke="#15384f"></path><path d="M0 109L0 174L52 123Z" fill="#246688" stroke="#246688"></path><path d="M0 405L0 475L54 421Z" fill="#1d4e6b" stroke="#1d4e6b"></path><path d="M65 0L54 67L110 53Z" fill="#19435d" stroke="#19435d"></path><path d="M110 53L54 67L127 117Z" fill="#19435d" stroke="#19435d"></path><path d="M718 57L661 0L673 59Z" fill="#277297" stroke="#277297"></path><path d="M673 59L661 0L614 62Z" fill="#246688" stroke="#246688"></path><path d="M793 177L731 180L774 251Z" fill="#277297" stroke="#277297"></path><path d="M728 113L718 57L673 59Z" fill="#00101c" stroke="#00101c"></path><path d="M0 600L64 600L50 546Z" fill="#246688" stroke="#246688"></path><path d="M50 546L64 600L116 550Z" fill="#246688" stroke="#246688"></path><path d="M181 0L106 0L110 53Z" fill="#00101c" stroke="#00101c"></path><path d="M851 243L793 177L774 251Z" fill="#00101c" stroke="#00101c"></path><path d="M839 419L826 358L790 367Z" fill="#19435d" stroke="#19435d"></path><path d="M790 367L826 358L792 302Z" fill="#1d4e6b" stroke="#1d4e6b"></path><path d="M792 302L851 243L774 251Z" fill="#00101c" stroke="#00101c"></path><path d="M733 490L794 479L734 433Z" fill="#277297" stroke="#277297"></path><path d="M769 540L794 479L733 490Z" fill="#00101c" stroke="#00101c"></path><path d="M769 540L733 490L707 527Z" fill="#246688" stroke="#246688"></path><path d="M734 600L707 527L672 547Z" fill="#1d4e6b" stroke="#1d4e6b"></path><path d="M839 419L790 367L768 424Z" fill="#1d4e6b" stroke="#1d4e6b"></path><path d="M649 600L734 600L672 547Z" fill="#205a7a" stroke="#205a7a"></path><path d="M793 177L788 134L731 180Z" fill="#081a28" stroke="#081a28"></path><path d="M852 171L788 134L793 177Z" fill="#19435d" stroke="#19435d"></path><path d="M0 45L0 109L54 67Z" fill="#246688" stroke="#246688"></path><path d="M54 67L0 109L52 123Z" fill="#19435d" stroke="#19435d"></path><path d="M0 475L0 542L50 546Z" fill="#277297" stroke="#277297"></path><path d="M106 0L65 0L110 53Z" fill="#205a7a" stroke="#205a7a"></path><path d="M794 479L839 419L768 424Z" fill="#297ea6" stroke="#297ea6"></path><path d="M826 358L854 303L792 302Z" fill="#112e42" stroke="#112e42"></path><path d="M831 476L839 419L794 479Z" fill="#1d4e6b" stroke="#1d4e6b"></path><path d="M900 311L854 303L900 353Z" fill="#15384f" stroke="#15384f"></path><path d="M843 551L831 476L794 479Z" fill="#297ea6" stroke="#297ea6"></path><path d="M843 551L794 479L769 540Z" fill="#0c2435" stroke="#0c2435"></path><path d="M734 600L767 600L769 540Z" fill="#15384f" stroke="#15384f"></path><path d="M854 303L851 243L792 302Z" fill="#15384f" stroke="#15384f"></path><path d="M784 64L728 113L788 134Z" fill="#00101c" stroke="#00101c"></path><path d="M768 0L730 0L718 57Z" fill="#19435d" stroke="#19435d"></path><path d="M718 57L730 0L661 0Z" fill="#1d4e6b" stroke="#1d4e6b"></path><path d="M853 127L784 64L788 134Z" fill="#15384f" stroke="#15384f"></path><path d="M0 542L0 600L50 546Z" fill="#112e42" stroke="#112e42"></path><path d="M65 0L0 45L54 67Z" fill="#19435d" stroke="#19435d"></path><path d="M900 178L852 171L851 243Z" fill="#297ea6" stroke="#297ea6"></path><path d="M851 243L852 171L793 177Z" fill="#297ea6" stroke="#297ea6"></path><path d="M838 46L768 0L784 64Z" fill="#0c2435" stroke="#0c2435"></path><path d="M784 64L768 0L718 57Z" fill="#081a28" stroke="#081a28"></path><path d="M852 171L853 127L788 134Z" fill="#0c2435" stroke="#0c2435"></path><path d="M900 132L853 127L852 171Z" fill="#112e42" stroke="#112e42"></path><path d="M65 0L0 0L0 45Z" fill="#277297" stroke="#277297"></path><path d="M767 600L843 551L769 540Z" fill="#205a7a" stroke="#205a7a"></path><path d="M900 432L900 353L839 419Z" fill="#277297" stroke="#277297"></path><path d="M900 353L854 303L826 358Z" fill="#081a28" stroke="#081a28"></path><path d="M900 353L826 358L839 419Z" fill="#246688" stroke="#246688"></path><path d="M854 303L900 251L851 243Z" fill="#00101c" stroke="#00101c"></path><path d="M900 432L839 419L831 476Z" fill="#205a7a" stroke="#205a7a"></path><path d="M900 311L900 251L854 303Z" fill="#081a28" stroke="#081a28"></path><path d="M900 492L900 432L831 476Z" fill="#297ea6" stroke="#297ea6"></path><path d="M900 45L838 46L853 127Z" fill="#205a7a" stroke="#205a7a"></path><path d="M853 127L838 46L784 64Z" fill="#1d4e6b" stroke="#1d4e6b"></path><path d="M900 251L900 178L851 243Z" fill="#246688" stroke="#246688"></path><path d="M767 600L850 600L843 551Z" fill="#15384f" stroke="#15384f"></path><path d="M843 551L900 492L831 476Z" fill="#081a28" stroke="#081a28"></path><path d="M900 537L900 492L843 551Z" fill="#297ea6" stroke="#297ea6"></path><path d="M900 178L900 132L852 171Z" fill="#00101c" stroke="#00101c"></path><path d="M900 600L900 537L843 551Z" fill="#15384f" stroke="#15384f"></path><path d="M900 45L841 0L838 46Z" fill="#15384f" stroke="#15384f"></path><path d="M838 46L841 0L768 0Z" fill="#246688" stroke="#246688"></path><path d="M850 600L900 600L843 551Z" fill="#081a28" stroke="#081a28"></path><path d="M900 132L900 45L853 127Z" fill="#205a7a" stroke="#205a7a"></path><path d="M900 45L900 0L841 0Z" fill="#297ea6" stroke="#297ea6"></path></g></svg>